<svg xmlns="http://www.w3.org/2000/svg" viewBox="0 0 67.66 14.86"><defs><style>.cls-1{fill:#fff;}</style></defs><title>el-dots</title><g id="Слой_2" data-name="Слой 2"><g id="Layer"><circle class="cls-1" cx="14.1" cy="13.92" r="0.94"/><circle class="cls-1" cx="20.67" cy="13.92" r="0.94"/><circle class="cls-1" cx="27.25" cy="13.92" r="0.94"/><circle class="cls-1" cx="33.83" cy="13.92" r="0.94"/><circle class="cls-1" cx="40.41" cy="13.92" r="0.94"/><circle class="cls-1" cx="46.99" cy="13.92" r="0.94"/><circle class="cls-1" cx="53.57" cy="13.92" r="0.94"/><circle class="cls-1" cx="60.15" cy="13.92" r="0.94"/><circle class="cls-1" cx="66.73" cy="13.92" r="0.94"/><circle class="cls-1" cx="0.94" cy="7.43" r="0.94"/><circle class="cls-1" cx="7.52" cy="7.43" r="0.94"/><circle class="cls-1" cx="14.1" cy="7.43" r="0.94"/><circle class="cls-1" cx="20.67" cy="7.43" r="0.94"/><circle class="cls-1" cx="27.25" cy="7.43" r="0.94"/><circle class="cls-1" cx="33.83" cy="7.43" r="0.94"/><circle class="cls-1" cx="40.41" cy="7.43" r="0.94"/><circle class="cls-1" cx="46.99" cy="7.43" r="0.94"/><circle class="cls-1" cx="53.57" cy="7.43" r="0.94"/><circle class="cls-1" cx="7.48" cy="0.94" r="0.94"/><circle class="cls-1" cx="14.06" cy="0.94" r="0.94"/><circle class="cls-1" cx="20.64" cy="0.94" r="0.94"/><circle class="cls-1" cx="27.22" cy="0.94" r="0.94"/><circle class="cls-1" cx="33.79" cy="0.94" r="0.94"/><circle class="cls-1" cx="40.37" cy="0.94" r="0.94"/><circle class="cls-1" cx="46.95" cy="0.94" r="0.94"/><circle class="cls-1" cx="53.53" cy="0.94" r="0.94"/><circle class="cls-1" cx="60.11" cy="0.94" r="0.94"/></g></g></svg>