<svg xmlns="http://www.w3.org/2000/svg" viewBox="0 0 290.43 167.87"><defs><style>.cls-1,.cls-2,.cls-3{fill:none;stroke-linecap:round;stroke-miterlimit:10;}.cls-1,.cls-2{stroke:#fff;}.cls-1,.cls-3{stroke-width:5px;}.cls-2{stroke-width:4px;}.cls-3{stroke:#000;}</style></defs><title>geo-map</title><g id="Слой_2" data-name="Слой 2"><g id="Слой_1-2" data-name="Слой 1"><path class="cls-1" d="M3.89,209.39" transform="translate(-11.69)"/><path class="cls-2" d="M1.23,198.51" transform="translate(-11.69)"/><path class="cls-3" d="M6.52,230.07" transform="translate(-11.69)"/><path class="cls-3" d="M0,220" transform="translate(-11.69)"/><line class="cls-2" x1="126.59" y1="165.87" x2="137.89" y2="165.87"/><line class="cls-2" x1="153.61" y1="165.87" x2="158.28" y2="165.87"/><line class="cls-2" x1="13.15" y1="155" x2="19.41" y2="154.99"/><line class="cls-2" x1="111.72" y1="155" x2="198.69" y2="154.99"/><line class="cls-2" x1="253.59" y1="155" x2="259.67" y2="154.99"/><line class="cls-2" x1="98.82" y1="144.12" x2="211.1" y2="144.11"/><line class="cls-2" x1="253.59" y1="144.12" x2="261.7" y2="144.11"/><line class="cls-2" x1="6.14" y1="144.12" x2="30.83" y2="144.11"/><line class="cls-2" x1="64.19" y1="144.12" x2="68.05" y2="144.11"/><line class="cls-2" x1="2" y1="133.25" x2="29.91" y2="133.24"/><line class="cls-2" x1="49.35" y1="133.25" x2="212.23" y2="133.24"/><line class="cls-2" x1="226.97" y1="133.25" x2="261.7" y2="133.24"/><line class="cls-2" x1="17.57" y1="122.36" x2="257.65" y2="122.36"/><line class="cls-2" x1="267.23" y1="122.36" x2="271.53" y2="122.36"/><line class="cls-2" x1="287.01" y1="122.36" x2="287.01" y2="122.36"/><line class="cls-2" x1="259.3" y1="111.5" x2="263.63" y2="111.49"/><line class="cls-2" x1="288.43" y1="111.5" x2="288.43" y2="111.49"/><line class="cls-2" x1="246.5" y1="111.5" x2="250.83" y2="111.49"/><line class="cls-2" x1="14.81" y1="111.5" x2="236.09" y2="111.49"/><line class="cls-2" x1="13.88" y1="100.62" x2="235.17" y2="100.61"/><line class="cls-2" x1="286.27" y1="100.62" x2="286.27" y2="100.61"/><line class="cls-2" x1="117.8" y1="89.73" x2="236.09" y2="89.73"/><line class="cls-2" x1="283.26" y1="89.73" x2="283.53" y2="89.73"/><line class="cls-2" x1="17.57" y1="89.73" x2="109.88" y2="89.73"/><line class="cls-2" x1="133.28" y1="78.86" x2="244.33" y2="78.86"/><line class="cls-2" x1="267.35" y1="78.86" x2="280.37" y2="78.86"/><line class="cls-2" x1="119.27" y1="78.86" x2="127.2" y2="78.86"/><line class="cls-2" x1="108.41" y1="78.86" x2="111.9" y2="78.86"/><line class="cls-2" x1="21.25" y1="78.86" x2="100.11" y2="78.86"/><line class="cls-2" x1="43.73" y1="67.98" x2="51.84" y2="67.98"/><line class="cls-2" x1="60.68" y1="67.98" x2="65.01" y2="67.98"/><line class="cls-2" x1="93.3" y1="67.98" x2="94.31" y2="67.98"/><line class="cls-2" x1="114.48" y1="67.98" x2="116.33" y2="67.98"/><line class="cls-2" x1="129.22" y1="67.98" x2="250.65" y2="67.98"/><line class="cls-2" x1="262.81" y1="67.98" x2="274.97" y2="67.98"/><line class="cls-2" x1="53.68" y1="57.11" x2="63.73" y2="57.11"/><line class="cls-2" x1="100.11" y1="57.11" x2="103.34" y2="57.11"/><line class="cls-2" x1="142.99" y1="57.11" x2="163.86" y2="57.11"/><line class="cls-2" x1="196.6" y1="57.11" x2="250.65" y2="57.11"/><line class="cls-2" x1="260.41" y1="57.11" x2="261.7" y2="57.11"/><line class="cls-2" x1="206.06" y1="46.23" x2="262.81" y2="46.21"/><line class="cls-2" x1="150.38" y1="46.23" x2="148.83" y2="46.21"/><line class="cls-2" x1="194.02" y1="46.23" x2="195.55" y2="46.21"/><line class="cls-2" x1="229.64" y1="34.99" x2="263.91" y2="34.99"/><line class="cls-2" x1="234.43" y1="24.12" x2="262.81" y2="24.11"/><line class="cls-2" x1="238.3" y1="12.88" x2="254.15" y2="12.88"/><line class="cls-2" x1="259.12" y1="2.01" x2="252.36" y2="2"/></g></g></svg>