<svg xmlns="http://www.w3.org/2000/svg" viewBox="0 0 209.36 215.26"><defs><style>.cls-1{fill:#d4d4d4;stroke:#d4d4d4;stroke-miterlimit:10;stroke-width:3px;}</style></defs><title>ic-how-3</title><g id="Слой_2" data-name="Слой 2"><g id="Слой_1-2" data-name="Слой 1"><path class="cls-1" d="M137.12,1.5c-4,0-8.12.93-11,3.78L91.61,39.82,21.77,48.76c-7.33.87-12.58,3.7-15.85,7.55C3.09,60.42,1.5,64.67,1.5,69q0,60.55,0,121.14a25.79,25.79,0,0,0,5.71,15.38c3.56,4.56,8.74,8.2,14.93,8.2h88.45a2.95,2.95,0,1,0,0-5.9H22.14c-3.86,0-7.54-2.33-10.32-5.9A20.83,20.83,0,0,1,7.4,190.17V80.62a11.21,11.21,0,0,0,2.76,1.68c4.47,1.77,9.2,1.66,12,1.66H181.35a17.22,17.22,0,0,1,10.6,3.5,10.19,10.19,0,0,1,4.15,8.29v20.64l-38.33.09A13.92,13.92,0,0,0,143,131.21v29.48a14.63,14.63,0,0,0,4.24,10.78,15,15,0,0,0,10.5,4h38.33v17.69c0,7.14-6.66,14.74-14.74,14.74H128.28a2.95,2.95,0,1,0,0,5.9h53.07c11.61,0,20.64-10,20.64-20.64V95.74a16,16,0,0,0-3.5-9.95l5.62-5.62a13,13,0,0,0,3.69-10.59,13.57,13.57,0,0,0-3.69-8.29l-56-56c-2.82-2.81-7-3.76-11-3.78Zm0,5.9c2.89,0,5.67,1,6.73,2l6.91,6.91a3,3,0,0,0-1,.74c-19.07,20.44-39,40.52-57.87,61H61.76C84.7,55.14,107.45,32.31,130.4,9.42c1.08-1.08,3.84-2,6.73-2ZM154.63,20.2,165.5,31.07a3,3,0,0,0-1,.74c-14.23,15.44-29,30.85-43.06,46.25H100l54-56.93a3,3,0,0,0,.64-.92Zm14.74,14.74,30.5,30.49A9.08,9.08,0,0,1,202,70.23a6.78,6.78,0,0,1-2.12,5.8l-5.71,5.8a23.44,23.44,0,0,0-12.81-3.78h-52l39.34-42.19A3,3,0,0,0,169.37,34.94ZM84.7,46.73C74.47,57.31,64.07,67.53,53.54,78.06H22.14c-2.76,0-6.87-.1-9.86-1.29S7.4,74.07,7.4,69.21c0-.09,0-.18,0-.28a13.72,13.72,0,0,1,3-8.84c2.2-2.6,5.85-4.7,12.07-5.44Zm111.39,75.54v47.26H157.76a8.87,8.87,0,0,1-6.36-2.3,8.55,8.55,0,0,1-2.49-6.54V131.21a8.13,8.13,0,0,1,8.84-8.84ZM48.3,175.34a3,3,0,0,0-1.75.92L31.81,191a3,3,0,1,0,4.24,4.15l14.74-14.74c1.84-1.71,0-5.47-2.49-5.07Zm17.69,0a3,3,0,0,0-1.75.92L49.5,191a3,3,0,1,0,4.24,4.15l14.74-14.74c1.84-1.71,0-5.47-2.49-5.07Zm17.69,0a3,3,0,0,0-1.75.92L67.19,191a3,3,0,1,0,4.24,4.15l14.74-14.74c1.84-1.71,0-5.47-2.49-5.07Z"/></g></g></svg>