<svg xmlns="http://www.w3.org/2000/svg" viewBox="0 0 204.46 263.42"><defs><style>.cls-1{fill:#d4d4d4;stroke:#d4d4d4;stroke-miterlimit:10;stroke-width:4px;}</style></defs><title>ic-how-2</title><g id="Слой_2" data-name="Слой 2"><g id="Слой_1-2" data-name="Слой 1"><path class="cls-1" d="M4.95,2A3,3,0,0,0,2,4.95V258.48a3.06,3.06,0,0,0,2.95,2.95h153.3a3,3,0,0,0,2.12-.92l41.27-41.27a3,3,0,0,0,.83-2V4.95A3.06,3.06,0,0,0,199.52,2ZM7.9,7.9H196.57V214.26H158.24a2.94,2.94,0,0,0-2.95,2.95v38.32H7.9Zm126.49,17.6a3,3,0,0,0-1.93,1.11L93,71.74,71.55,55.62a3,3,0,1,0-3.5,4.7L91.64,78a3.05,3.05,0,0,0,4-.37l41.27-47.17C138.55,28.73,136.79,25.19,134.38,25.49ZM40.32,102.23a2.95,2.95,0,0,0,0,5.9H164.14a2.95,2.95,0,0,0,0-5.9Zm0,47.17a2.95,2.95,0,0,0,0,5.9H164.14a2.95,2.95,0,0,0,0-5.9Zm0,47.17a2.95,2.95,0,0,0,0,5.9H164.14a2.95,2.95,0,0,0,0-5.9Zm120.87,23.58h31.14l-31.14,31.14Z"/></g></g></svg>