<svg xmlns="http://www.w3.org/2000/svg" viewBox="0 0 283.41 283.41"><defs><style>.cls-1{fill:#d4d4d4;stroke:#d4d4d4;stroke-miterlimit:10;stroke-width:3px;}</style></defs><title>ic-how-4</title><g id="Слой_2" data-name="Слой 2"><g id="Слой_1-2" data-name="Слой 1"><path class="cls-1" d="M141.7,36.62a3.46,3.46,0,0,0,3.45-3.45V5a3.45,3.45,0,1,0-6.91,0V33.17A3.46,3.46,0,0,0,141.7,36.62Z"/><path class="cls-1" d="M141.7,246.78a3.46,3.46,0,0,0-3.45,3.45v28.21a3.45,3.45,0,0,0,6.91,0V250.24A3.45,3.45,0,0,0,141.7,246.78Z"/><path class="cls-1" d="M47.45,42.56a3.46,3.46,0,0,0-4.89,4.89L62.51,67.4a3.45,3.45,0,0,0,4.88-4.89Z"/><path class="cls-1" d="M220.89,216a3.46,3.46,0,1,0-4.89,4.89l19.95,19.95a3.45,3.45,0,1,0,4.88-4.89Z"/><path class="cls-1" d="M236,42.56,216,62.51a3.45,3.45,0,1,0,4.88,4.89l19.95-19.95A3.45,3.45,0,0,0,236,42.56Z"/><path class="cls-1" d="M62.51,216,42.56,236a3.45,3.45,0,1,0,4.88,4.89L67.4,220.89A3.45,3.45,0,1,0,62.51,216Z"/><path class="cls-1" d="M278.45,138.25H250.24a3.45,3.45,0,1,0,0,6.91h28.21a3.45,3.45,0,0,0,0-6.91Z"/><path class="cls-1" d="M33.17,138.25H5a3.45,3.45,0,1,0,0,6.91H33.17a3.45,3.45,0,1,0,0-6.91Z"/><path class="cls-1" d="M153,77.72H119.34a3.07,3.07,0,0,0-2.84,1.9,3,3,0,0,0-.35,1.39V144.8H103.59a3.07,3.07,0,0,0,0,6.14h12.57v17.52H103.59a3.07,3.07,0,0,0,0,6.14h12.57v27.1a3.07,3.07,0,1,0,6.14,0V174.6h31.09a3.07,3.07,0,0,0,0-6.14H122.3V150.94H153A36.61,36.61,0,1,0,153,77.72ZM153,144.8H122.3V83.86H153A30.47,30.47,0,1,1,153,144.8Z"/></g></g></svg>