<svg xmlns="http://www.w3.org/2000/svg" viewBox="0 0 512 433.18"><defs><style>.cls-1{fill:#ba0c2f;}</style></defs><title>ic-telegram</title><g id="Слой_2" data-name="Слой 2"><g id="Слой_1-2" data-name="Слой 1"><path class="cls-1" d="M504.09,11.86C497.84,4.21,488.47,0,477.72,0a51.74,51.74,0,0,0-18.41,3.66L25.91,169.11c-23,8.78-26.1,21.95-25.9,29s4,20,27.5,27.51l.42.13,89.9,25.73,48.62,139c6.63,19,21.51,30.73,38.84,30.73,10.93,0,21.67-4.58,31.08-13.23L292,356.8l80.65,64.94,0,0,.77.62.21.17c9,7,18.75,10.63,28.31,10.63h0c18.68,0,33.55-13.82,37.88-35.21l71-350.64C513.68,33.25,511.29,20.66,504.09,11.86ZM147.9,246.6,321.34,158l-108,114.75a15,15,0,0,0-3.64,6.68l-20.82,84.35ZM216,385.93c-.72.66-1.44,1.25-2.16,1.79l19.32-78.25,35.14,28.3ZM481.43,41.37,410.41,392c-.68,3.36-2.87,11.16-8.48,11.16-2.77,0-6.26-1.51-9.82-4.26l-91.39-73.59,0,0L246.3,281.51,402.47,115.56a15,15,0,0,0-17.75-23.64L127.86,223.15,36.74,197.08,470,31.69A22,22,0,0,1,477.72,30c.92,0,2.55.11,3.16.86C481.67,31.83,482.68,35.14,481.43,41.37Z"/></g></g></svg>