<svg xmlns="http://www.w3.org/2000/svg" viewBox="0 0 468.49 512"><defs><style>.cls-1{fill:#ba0c2f;}</style></defs><title>ic-viber</title><g id="Слой_2" data-name="Слой 2"><g id="Слой_1-2" data-name="Слой 1"><path class="cls-1" d="M468.48,180.71A181.19,181.19,0,0,0,287.78,0H180.7A181.19,181.19,0,0,0,0,180.71v84.16a179.1,179.1,0,0,0,32.85,103.6A181.32,181.32,0,0,0,107,429.79v48.34c0,25,14,33.87,26,33.87,8.56,0,17.13-4.23,25.46-12.56l53.86-53.86h75.44A181.19,181.19,0,0,0,468.49,264.87ZM287.78,415.58H206.13A15,15,0,0,0,195.53,420l-58.25,58.25-.23.23V419.78a15,15,0,0,0-9.65-14C69.14,383.54,30,326.91,30,264.87V180.71A151.18,151.18,0,0,1,180.71,30H287.78A151.19,151.19,0,0,1,438.48,180.71v84.16C438.48,348,370.88,415.58,287.78,415.58Z"/><path class="cls-1" d="M274.13,245.34a15,15,0,0,0-21.21,0L240.8,257.45l-47-46.95L206,198.39a15,15,0,0,0,0-21.21l-56.8-56.8a15,15,0,0,0-21.21,0L88.19,160.13a55.23,55.23,0,0,0,0,78l125,125a55.3,55.3,0,0,0,78,0l39.77-39.76a15,15,0,0,0,0-21.21ZM270,341.9a25.28,25.28,0,0,1-35.59,0l-125-125a25.19,25.19,0,0,1,0-35.59l29.16-29.16,35.59,35.59L162,199.89a15,15,0,0,0,0,21.21l68.16,68.16a15,15,0,0,0,21.21,0l12.12-12.11,35.59,35.59Z"/><path class="cls-1" d="M237.88,66.36a15,15,0,0,0,0,30A128.53,128.53,0,0,1,366.41,224.88a15,15,0,0,0,30,0A158.52,158.52,0,0,0,237.88,66.36Z"/><path class="cls-1" d="M302.14,224.88a15,15,0,0,0,30,0,94.36,94.36,0,0,0-94.26-94.25,15,15,0,0,0,0,30A64.33,64.33,0,0,1,302.14,224.88Z"/></g></g></svg>