<svg xmlns="http://www.w3.org/2000/svg" viewBox="0 0 368.5 368.5"><defs><style>.cls-1{fill:#ba0c2f;}</style></defs><title>ic-whatsapp</title><g id="Слой_2" data-name="Слой 2"><g id="Слой_1-2" data-name="Слой 1"><path class="cls-1" d="M316.16,52.34A177.52,177.52,0,0,0,189.8,0h0A178.73,178.73,0,0,0,31,260.66l-30,85.81a16.57,16.57,0,0,0,15.57,22,16.69,16.69,0,0,0,5.52-.94l85.81-30A178.71,178.71,0,0,0,316.16,52.34ZM300.88,289.78a157.15,157.15,0,0,1-184.82,27.64,16.64,16.64,0,0,0-13.28-1l-78,27.28,27.29-78a16.65,16.65,0,0,0-1-13.28A157.1,157.1,0,0,1,189.79,21.61h0A157.09,157.09,0,0,1,300.88,289.78Z"/><path class="cls-1" d="M256.21,194.66a21.11,21.11,0,0,0-29.82,0l-9,9a130.87,130.87,0,0,1-52.56-52.56l9-9a21.1,21.1,0,0,0,0-29.82L149.6,88.06a21.11,21.11,0,0,0-29.82,0L100.4,107.44c-11.1,11.1-11.66,30.19-1.56,53.75,8.77,20.45,24.81,42.93,45.17,63.3s42.84,36.41,63.3,45.17c11.19,4.8,21.37,7.19,30.17,7.19,9.72,0,17.75-2.92,23.58-8.75l19.38-19.38h0a21.08,21.08,0,0,0,0-29.82Zm-10.44,58.15c-3.17,3.17-12.91,4.28-29.95-3-18-7.71-38.06-22.13-56.53-40.59s-32.88-38.54-40.59-56.53c-7.3-17-6.19-26.78-3-30l19-19,23.48,23.48-11.25,11.26a16.49,16.49,0,0,0-3.05,19.2,152.47,152.47,0,0,0,67,67A16.49,16.49,0,0,0,230,221.57l11.25-11.25,23.48,23.48Z"/></g></g></svg>