<svg xmlns="http://www.w3.org/2000/svg" viewBox="0 0 296.4 87.13"><defs><style>.cls-1{fill:#292d30;}.cls-2{fill:#bb1731;}</style></defs><title>logo-black</title><g id="Слой_2" data-name="Слой 2"><g id="Слой_1-2" data-name="Слой 1"><path class="cls-1" d="M283.45,70.89a5.89,5.89,0,0,1,1.94-4.45,6.57,6.57,0,0,1,9.11,0,6,6,0,0,1,1.9,4.45,6.05,6.05,0,0,1-1.9,4.51,6.54,6.54,0,0,1-9.12,0A6,6,0,0,1,283.45,70.89Zm1.14,0a4.89,4.89,0,0,0,1.58,3.7,5.33,5.33,0,0,0,7.47-.05,4.95,4.95,0,0,0,0-7.32,5.35,5.35,0,0,0-7.48,0A4.91,4.91,0,0,0,284.59,70.92Zm4.45,1.6v2.09h-2.15v-7.5h2.84a3.41,3.41,0,0,1,3,1.14,2.62,2.62,0,0,1,0,2.64,2.13,2.13,0,0,1-1,.88l1.7,2.84H291l-1.19-2.09Zm1.73-2.71q0-.78-1-.78H289v1.52h.83a1.06,1.06,0,0,0,.63-.19A.64.64,0,0,0,290.77,69.81Z"/><path class="cls-1" d="M25,19.34l2.53,2.78a10.25,10.25,0,0,1-4.36,3.45,14.36,14.36,0,0,1-5.75,1.18,12.56,12.56,0,0,1-9.32-3.53A12.51,12.51,0,0,1,4.61,14,12.37,12.37,0,0,1,17.37,1.25,14.72,14.72,0,0,1,23,2.33a9.38,9.38,0,0,1,4.2,3.23L24.31,8.26a8.58,8.58,0,0,0-6.73-2.89A8.15,8.15,0,0,0,11.4,7.78,8.63,8.63,0,0,0,9.1,14a8.4,8.4,0,0,0,2.4,6.24,8.5,8.5,0,0,0,6.25,2.39A9.07,9.07,0,0,0,25,19.34Z"/><path class="cls-1" d="M45.3,0,46,3.67a19.36,19.36,0,0,1-5.16.89,18,18,0,0,0-5,.86q-3.21,1.5-3.46,6.2,2-2.85,6.77-2.85a8.3,8.3,0,0,1,6.25,2.37,8.55,8.55,0,0,1,2.3,6.22,9,9,0,0,1-9.4,9.47q-4.84,0-7.39-3.12a12.22,12.22,0,0,1-2.55-8,33.24,33.24,0,0,1,.3-4.77,19.67,19.67,0,0,1,1.1-4.17,8.69,8.69,0,0,1,2.48-3.55,10.47,10.47,0,0,1,4.2-2.12,36.13,36.13,0,0,1,4.35-.5A19.17,19.17,0,0,0,45.3,0ZM32.54,16.39v.39a6.6,6.6,0,0,0,1.57,4.44A5.17,5.17,0,0,0,38.24,23a5,5,0,0,0,3.83-1.51,5.55,5.55,0,0,0,1.41-3.94,5,5,0,0,0-1.35-3.74,5.19,5.19,0,0,0-3.78-1.32,6.26,6.26,0,0,0-3.53,1A5.9,5.9,0,0,0,32.54,16.39Z"/><path class="cls-1" d="M63.82,20.55,66.31,23a8.85,8.85,0,0,1-7.52,3.78,10,10,0,0,1-7.2-2.63,9.24,9.24,0,0,1-2.74-7,9.53,9.53,0,0,1,2.62-7,9.29,9.29,0,0,1,6.89-2.63,8.59,8.59,0,0,1,6.27,2.37A8.17,8.17,0,0,1,67.06,16a22,22,0,0,1-.21,2.6H53.1A4.39,4.39,0,0,0,55,21.89,6.68,6.68,0,0,0,58.87,23a6.28,6.28,0,0,0,2.78-.66A5.69,5.69,0,0,0,63.82,20.55Zm-5.63-9.37a5.34,5.34,0,0,0-3.3,1,4.67,4.67,0,0,0-1.76,2.85h9.73Q62.32,11.19,58.19,11.18Z"/><path class="cls-1" d="M73.15,33.59H69.09V7.94h4.06V9.62a5.07,5.07,0,0,1,2.23-1.57,8.13,8.13,0,0,1,2.9-.53,8.45,8.45,0,0,1,6.57,2.63,9.61,9.61,0,0,1,2.4,6.73A10.16,10.16,0,0,1,84.71,24,8.62,8.62,0,0,1,78,26.79a11,11,0,0,1-2.76-.37,3.85,3.85,0,0,1-2.08-1.16Zm4.7-22.3a5.05,5.05,0,0,0-2.8.82,5.15,5.15,0,0,0-1.91,2.21v6.41A4.76,4.76,0,0,0,77.53,23a5.21,5.21,0,0,0,4-1.62,5.93,5.93,0,0,0,1.5-4.19,6.62,6.62,0,0,0-1.32-4.28A4.69,4.69,0,0,0,77.85,11.29Z"/><path class="cls-1" d="M103.4,20.55,105.89,23a8.85,8.85,0,0,1-7.52,3.78,10,10,0,0,1-7.2-2.63,9.24,9.24,0,0,1-2.74-7,9.53,9.53,0,0,1,2.62-7,9.29,9.29,0,0,1,6.89-2.63,8.59,8.59,0,0,1,6.27,2.37A8.17,8.17,0,0,1,106.64,16a22,22,0,0,1-.21,2.6H92.67a4.39,4.39,0,0,0,1.87,3.29A6.68,6.68,0,0,0,98.44,23a6.28,6.28,0,0,0,2.78-.66A5.69,5.69,0,0,0,103.4,20.55Zm-5.63-9.37a5.34,5.34,0,0,0-3.3,1,4.67,4.67,0,0,0-1.76,2.85h9.73Q101.9,11.19,97.77,11.18Z"/><path class="cls-1" d="M112.73,26.47h-4.06V7.94h14v3.78h-9.9Z"/><path class="cls-1" d="M125.77,13.25l-2-3a9.34,9.34,0,0,1,3.53-2,13.39,13.39,0,0,1,4.24-.71,7.57,7.57,0,0,1,5.63,2,7.68,7.68,0,0,1,2,5.64V26.47h-4.06v-2a7.34,7.34,0,0,1-5.74,2.24,7.54,7.54,0,0,1-4.81-1.51,5.19,5.19,0,0,1-1.92-4.33,5.26,5.26,0,0,1,.78-2.92,4.85,4.85,0,0,1,2.14-1.82,12.54,12.54,0,0,1,2.74-.87,15.7,15.7,0,0,1,3-.27,13.57,13.57,0,0,1,3.81.5,4.5,4.5,0,0,0-.86-3.1,4,4,0,0,0-3.13-1.07A8.64,8.64,0,0,0,125.77,13.25Zm4.45,9.9a6,6,0,0,0,2.78-.68,5.22,5.22,0,0,0,2.07-1.85V18.84a12.62,12.62,0,0,0-3.38-.5q-4.88,0-4.88,2.46a1.89,1.89,0,0,0,1.05,1.78A4.89,4.89,0,0,0,130.22,23.16Z"/><path class="cls-1" d="M146.82,11.72h-6.7V7.94h17.46v3.78h-6.7V26.47h-4.06Z"/><path class="cls-1" d="M172.11,20.55,174.6,23a8.85,8.85,0,0,1-7.52,3.78,9.94,9.94,0,0,1-7.19-2.63,9.24,9.24,0,0,1-2.74-7,9.53,9.53,0,0,1,2.62-7,9.29,9.29,0,0,1,6.89-2.63,8.58,8.58,0,0,1,6.27,2.37A8.17,8.17,0,0,1,175.36,16a21.27,21.27,0,0,1-.22,2.6H161.39a4.4,4.4,0,0,0,1.87,3.29,6.69,6.69,0,0,0,3.9,1.12,6.28,6.28,0,0,0,2.78-.66A5.69,5.69,0,0,0,172.11,20.55Zm-5.63-9.37a5.34,5.34,0,0,0-3.3,1,4.67,4.67,0,0,0-1.76,2.85h9.72Q170.61,11.19,166.48,11.18Z"/><path class="cls-1" d="M193.41,26.47h-4.06V11.72H182.8v2.89q0,9.3-4.06,11.4a6.65,6.65,0,0,1-3.74.6l-.32-3.78a2.88,2.88,0,0,0,2.4-1,7.05,7.05,0,0,0,1.2-2.78,25.41,25.41,0,0,0,.53-5.88V7.94h14.61Z"/><path class="cls-1" d="M204,26.47H196.3V7.94h4.06v5.38h3.92q7.84,0,7.84,6.52a5.71,5.71,0,0,1-2.28,5A9.87,9.87,0,0,1,204,26.47Zm-.11-9.37h-3.56v5.59h3.53q4,0,4-2.81T203.92,17.1Z"/><path class="cls-1" d="M230.85,26.47h-4.06V19h-8.91v7.52h-4.06V7.94h4.06v7.27h8.91V7.94h4.06Z"/><path class="cls-1" d="M240.76,26.47h-7V7.94h4.06v5.38H241q7.84,0,7.84,6.52a5.69,5.69,0,0,1-2.31,5A9.87,9.87,0,0,1,240.76,26.47Zm0-9.37h-2.89v5.59h2.85q4,0,4-2.81a2.27,2.27,0,0,0-1.07-2.21A6.17,6.17,0,0,0,240.72,17.1Zm14.07,9.37h-4.06V7.94h4.06Z"/><path class="cls-1" d="M271,14.43l-9.83,12h-3.53V7.94h4.06V20l9.83-12.08h3.53V26.47H271ZM260.49.07h3.74a2.52,2.52,0,0,0,.71,1.75,2.44,2.44,0,0,0,1.85.68,2.41,2.41,0,0,0,1.78-.64,2.41,2.41,0,0,0,.64-1.78h3.7a5.57,5.57,0,0,1-1.81,4.1,6.32,6.32,0,0,1-4.31,1.46,6.74,6.74,0,0,1-4.49-1.46A5.24,5.24,0,0,1,260.49.07Z"/><path class="cls-1" d="M7.38,87.13H0V71.45H4.18q4.11-7.1,4.11-22.57V42.61H36V71.45H41.1V87.13H33.71V78.84H7.38ZM28.07,50H15.81v3q0,11.43-3.41,18.46H28.07Z"/><path class="cls-1" d="M41.65,60.66q0-8.43,5.5-13.65A19.33,19.33,0,0,1,61,41.78q8.5,0,14,5.26a18.06,18.06,0,0,1,5.47,13.62,17.77,17.77,0,0,1-5.57,13.58A19.49,19.49,0,0,1,61,79.46a19.14,19.14,0,0,1-13.83-5.33A17.9,17.9,0,0,1,41.65,60.66Zm8.22,0A11.33,11.33,0,0,0,53,68.81a10.61,10.61,0,0,0,8,3.27,10.85,10.85,0,0,0,8.18-3.13,11.42,11.42,0,0,0,3-8.29A11.38,11.38,0,0,0,69.1,52.4,10.75,10.75,0,0,0,61,49.16a10.61,10.61,0,0,0-8.08,3.24A11.52,11.52,0,0,0,49.87,60.66Z"/><path class="cls-1" d="M92.36,78.84H84.42V42.61h7.11l12.68,16.44,12.68-16.44h6.55V78.84h-7.94V56.34L104.28,70.89,92.36,56.13Z"/><polygon class="cls-2" points="180.74 37.67 274.76 37.67 274.76 77.48 204.24 77.48 180.74 37.67"/><polygon class="cls-2" points="143.4 77.48 164.06 42.6 185.48 77.48 143.4 77.48"/></g></g></svg>