<svg xmlns="http://www.w3.org/2000/svg" viewBox="0 0 294.84 257.93"><defs><style>.cls-1{fill:#696c79;}</style></defs><title>sheme-ic-2</title><g id="Слой_2" data-name="Слой 2"><g id="Слой_1-2" data-name="Слой 1"><path class="cls-1" d="M89.82,105.94A4.59,4.59,0,0,0,93,104.63L188.73,11l96,93.37a4.61,4.61,0,0,0,6.43-6.6L248.74,56.58V27.64a4.61,4.61,0,1,0-9.21,0v20L191.93,1.3a4.61,4.61,0,0,0-6.43,0L86.6,98a4.61,4.61,0,0,0,3.22,7.9Z"/><path class="cls-1" d="M294.22,198.63c-2.25-8-10.94-10.39-18.06-9.31-.5.08-50.1,9.3-79.62,14.8a4.61,4.61,0,1,0,1.68,9.06h0l79.34-14.75c2.7-.41,7,0,7.79,2.72,2.3,8.09-15,15-23.38,18.34-1.26.5-2.4,1-3.36,1.37C251,224.08,213.89,238.4,199.23,243c-21.54,6.79-38.73,7.53-54.07,2.35a193.14,193.14,0,0,1-27.73-12.87c-11.13-5.9-22.64-12-35.09-15.25a29.64,29.64,0,0,0-20,1l-.31.16-6.73,3.74V175.65l26-7.69c.23-.07,23.66-7.11,45.65,4.95l1.5.82c7.69,4.21,15.64,8.57,23.37,13,.74.42,1.73.94,2.91,1.56,5.49,2.88,18.34,9.61,19.9,15.87a4.38,4.38,0,0,1-.84,3.8c-1.88,1.82-10.57,1.78-41.27-8.8-4.23-1.46-7.28-2.51-9.18-3a4.61,4.61,0,1,0-2.2,8.95c1.49.37,4.68,1.47,8.38,2.74,24.56,8.46,45.42,14.7,51.84,5.33a13.67,13.67,0,0,0,2.21-11.27C181,191.63,166.69,184.13,159,180.1c-1.06-.56-2-1-2.63-1.41-7.8-4.43-15.78-8.81-23.5-13l-1.5-.82c-25.52-14-51.73-6-52.76-5.68L55.27,166v0A18.52,18.52,0,0,0,36.85,147.4H9.21A9.21,9.21,0,0,0,0,156.61v87.52a9.21,9.21,0,0,0,9.21,9.21H36.85a18.52,18.52,0,0,0,18.42-18.62v-2l11-6.14A21.29,21.29,0,0,1,80,226.17c11.41,3,22,8.57,33.11,14.48a199.88,199.88,0,0,0,29.1,13.46,74.83,74.83,0,0,0,24.16,3.82A118.91,118.91,0,0,0,202,251.81c14.89-4.69,52.46-19.2,60.21-22.48.91-.38,2-.82,3.19-1.29C277.06,223.38,298.78,214.71,294.22,198.63ZM46.06,234.72a9.32,9.32,0,0,1-9.21,9.41H9.21V156.61H36.85A9.32,9.32,0,0,1,46.06,166Z"/><circle class="cls-1" cx="27.64" cy="221.1" r="4.61"/><path class="cls-1" d="M164.24,136.43h28.47a4.27,4.27,0,1,0,0-8.54H164.24a4.27,4.27,0,0,0,0,8.54Z"/><path class="cls-1" d="M180.89,79.62h15.57c9.68,0,17.32,4.88,17.32,15.78s-7.88,16.2-17.32,16.2c-1.89,0-3.06,0-5.11,0H191c-3.19,0-5.67-.06-10.13,0Zm-16.62,32a4.27,4.27,0,0,0-.06,8.54l8.14,0v28a4.27,4.27,0,0,0,8.54,0v-28c4.45-.05,6.87,0,10,0h.32c2.1,0,3.3,0,5.24,0,13.59,0,25.86-8.11,25.86-24.74s-12.05-24.32-25.86-24.32H176.62a4.27,4.27,0,0,0-4.27,4.27v36.27Z"/></g></g></svg>