<svg xmlns="http://www.w3.org/2000/svg" viewBox="0 0 212.26 212.11"><defs><style>.cls-1{fill:#696c79;}</style></defs><title>sheme-ic-1</title><g id="Слой_2" data-name="Слой 2"><g id="Слой_1-2" data-name="Слой 1"><path class="cls-1" d="M79.18,26.39a3.32,3.32,0,0,0-2.9,3.45V56.38A3.32,3.32,0,0,0,79.6,59.7h53.06A3.32,3.32,0,0,0,136,56.38V29.85a3.32,3.32,0,0,0-6.63-.09s0,.06,0,.09V53.06H82.91V29.85a3.32,3.32,0,0,0-3.73-3.45Z"/><path class="cls-1" d="M106.27,0a13.44,13.44,0,0,0-13.4,13.27,13.4,13.4,0,0,0,13.4,13.27,13.27,13.27,0,0,0,0-26.53Zm0,6.63a6.46,6.46,0,0,1,6.49,6.63,6.5,6.5,0,0,1-6.49,6.63,6.77,6.77,0,0,1-6.77-6.63A6.73,6.73,0,0,1,106.27,6.63Z"/><path class="cls-1" d="M2.91,101.29A3.32,3.32,0,0,0,0,104.74v26.53a3.32,3.32,0,0,0,3.32,3.32H56.38a3.32,3.32,0,0,0,3.32-3.32V104.74a3.32,3.32,0,0,0-6.63-.09s0,.06,0,.09V128H6.64V104.74a3.32,3.32,0,0,0-3.73-3.46Z"/><path class="cls-1" d="M30,74.9a13.49,13.49,0,0,0-13.4,13.4A13.33,13.33,0,0,0,30,101.43,13.13,13.13,0,0,0,43.12,88.3,13.3,13.3,0,0,0,30,74.9Zm0,6.63a6.45,6.45,0,0,1,6.49,6.77A6.34,6.34,0,0,1,30,94.79a6.61,6.61,0,0,1-6.77-6.49A6.71,6.71,0,0,1,30,81.53Z"/><path class="cls-1" d="M155.19,104.19a3.32,3.32,0,0,0-2.63,3.32V134a3.32,3.32,0,0,0,3.32,3.32h53.06a3.32,3.32,0,0,0,3.32-3.32V107.51a3.32,3.32,0,0,0-6.63-.09s0,.06,0,.09v23.22H159.19V107.51a3.32,3.32,0,0,0-4-3.32Z"/><path class="cls-1" d="M182.27,77.8a13.2,13.2,0,0,0,0,26.39,13.2,13.2,0,1,0,0-26.39Zm0,6.63A6.45,6.45,0,0,1,189,90.93a6.6,6.6,0,0,1-6.77,6.63,6.49,6.49,0,0,1-6.49-6.63A6.34,6.34,0,0,1,182.27,84.43Z"/><path class="cls-1" d="M26.26,178.95a3.32,3.32,0,0,0-2.9,3.32V208.8a3.32,3.32,0,0,0,3.32,3.32H79.6a3.32,3.32,0,0,0,3.32-3.32V182.27a3.32,3.32,0,1,0-6.63-.09s0,.06,0,.09v23.21H30V182.27a3.32,3.32,0,0,0-3.29-3.34l-.44,0Z"/><path class="cls-1" d="M53.07,152.56A13.21,13.21,0,0,0,39.8,165.68a13.27,13.27,0,1,0,26.53,0A13.25,13.25,0,0,0,53.07,152.56Zm0,6.63a6.46,6.46,0,0,1,6.63,6.49,6.63,6.63,0,1,1-13.27,0,6.49,6.49,0,0,1,6.63-6.49Z"/><path class="cls-1" d="M131.14,178.95a3.32,3.32,0,0,0-2.9,3.32V208.8a3.32,3.32,0,0,0,3.32,3.32h53.06a3.32,3.32,0,0,0,3.32-3.32V182.27a3.32,3.32,0,1,0-6.63-.09s0,.06,0,.09v23.21H134.87V182.27a3.32,3.32,0,0,0-3.29-3.34l-.44,0Z"/><path class="cls-1" d="M158.09,152.56a13.25,13.25,0,0,0-13.27,13.13,13.27,13.27,0,1,0,26.53,0A13.21,13.21,0,0,0,158.09,152.56Zm0,6.63a6.49,6.49,0,0,1,6.63,6.49,6.63,6.63,0,1,1-13.27,0,6.46,6.46,0,0,1,6.63-6.49Z"/><path class="cls-1" d="M95.14,87.06a3.32,3.32,0,0,0-2.9,3.32V139a3.32,3.32,0,0,0,6.63.09s0-.06,0-.09V90.37A3.32,3.32,0,0,0,95.58,87Z"/><path class="cls-1" d="M91.21,124.5a3.32,3.32,0,0,0,.36,6.64h20.78a3.32,3.32,0,0,0,.11-6.63H91.21Z"/><path class="cls-1" d="M107.08,87.07a3.48,3.48,0,0,0-2.83,3.8c.25,1.74,1.82,2.83,3.8,2.83,5-.15,9.25,3.92,9.4,9.53s-3.86,10-8.84,10.23a3.32,3.32,0,0,0,.14,6.63c8.75-.32,15.57-8,15.34-17s-7.51-16.29-16.31-16a1.81,1.81,0,0,0-.69,0Z"/><path class="cls-1" d="M95.39,87.06a3.32,3.32,0,1,0,.42,6.63h12.6a3.32,3.32,0,1,0,0-6.63h-13Z"/><path class="cls-1" d="M91,113.44a3.33,3.33,0,1,0,.7,6.63H108.5a3.32,3.32,0,1,0,.11-6.63H91.67A3.41,3.41,0,0,0,91,113.44Z"/></g></g></svg>